<svg xmlns="http://www.w3.org/2000/svg" viewBox="0 0 640 200" role="img" aria-label="TrainoraX logo">
  <g transform="translate(20,20)">
    <!-- Blue X -->
    <path d="M40 145 L102 83 L126 83 L64 145 Z" fill="#2563EB"/>
    <path d="M102 83 L164 145 L140 145 L78 83 Z" fill="#2563EB"/>
    <path d="M40 45 L64 45 L126 107 L102 107 Z" fill="#2563EB"/>

    <!-- Orange arrow -->
    <path d="M112 28 L174 28 Q181 28 181 35 L181 90 Q181 98 173 98 L161 98 Q153 98 153 90 L153 67 L120 100 L99 79 L132 46 L119 46 Q112 46 112 39 Z" fill="#F59E0B"/>
  </g>

  <text x="220" y="122"
        font-family="Inter, Arial, Helvetica, sans-serif"
        font-size="76"
        font-weight="700"
        letter-spacing="-1.5"
        fill="#E5E7EB">TrainoraX</text>
</svg>